<?xml version="1.0" encoding="UTF-8" standalone="no"?>
<!-- Created with Inkscape (http://www.inkscape.org/) -->

<svg
   xmlns:dc="http://purl.org/dc/elements/1.1/"
   xmlns:cc="http://creativecommons.org/ns#"
   xmlns:rdf="http://www.w3.org/1999/02/22-rdf-syntax-ns#"
   xmlns:svg="http://www.w3.org/2000/svg"
   xmlns="http://www.w3.org/2000/svg"
   xmlns:xlink="http://www.w3.org/1999/xlink"
   xmlns:sodipodi="http://sodipodi.sourceforge.net/DTD/sodipodi-0.dtd"
   xmlns:inkscape="http://www.inkscape.org/namespaces/inkscape"
   version="1.0"
   width="744.09448"
   height="623.2677"
   id="svg2693"
   sodipodi:version="0.32"
   inkscape:version="0.92.2 2405546, 2018-03-11"
   sodipodi:docname="bio-rd-logo.svg"
   inkscape:output_extension="org.inkscape.output.svg.inkscape">
  <metadata
     id="metadata39">
    <rdf:RDF>
      <cc:Work
         rdf:about="">
        <dc:format>image/svg+xml</dc:format>
        <dc:type
           rdf:resource="http://purl.org/dc/dcmitype/StillImage" />
        <dc:title></dc:title>
      </cc:Work>
    </rdf:RDF>
  </metadata>
  <sodipodi:namedview
     inkscape:window-height="1061"
     inkscape:window-width="1920"
     inkscape:pageshadow="2"
     inkscape:pageopacity="0.0"
     guidetolerance="10.0"
     gridtolerance="10.0"
     objecttolerance="10.0"
     borderopacity="1.0"
     bordercolor="#666666"
     pagecolor="#ffffff"
     id="base"
     inkscape:zoom="1.209753"
     inkscape:cx="403.74347"
     inkscape:cy="247.39431"
     inkscape:window-x="0"
     inkscape:window-y="0"
     inkscape:current-layer="g5903"
     showgrid="false"
     inkscape:window-maximized="0" />
  <defs
     id="defs2695">
    <linearGradient
       x1="362.32599"
       y1="5.8388"
       x2="379.63699"
       y2="5.8388"
       id="id1"
       gradientUnits="userSpaceOnUse">
      <stop
         style="stop-color:#71bf44;stop-opacity:1"
         offset="0"
         id="stop2504" />
      <stop
         style="stop-color:#ffffff;stop-opacity:1"
         offset="1"
         id="stop2506" />
    </linearGradient>
    <linearGradient
       x1="362.32599"
       y1="5.8388"
       x2="379.63699"
       y2="5.8388"
       id="linearGradient2686"
       xlink:href="#id1"
       gradientUnits="userSpaceOnUse"
       gradientTransform="matrix(17.570118,0,0,17.570118,-1735.4368,-2488.6967)" />
    <linearGradient
       x1="362.32599"
       y1="5.8388"
       x2="379.63699"
       y2="5.8388"
       id="linearGradient2761"
       xlink:href="#id1"
       gradientUnits="userSpaceOnUse"
       gradientTransform="matrix(17.570118,0,0,17.570118,-1735.4368,-2488.6967)" />
    <linearGradient
       inkscape:collect="always"
       xlink:href="#id1"
       id="linearGradient2219"
       gradientUnits="userSpaceOnUse"
       gradientTransform="matrix(17.570118,0,0,17.570118,-1735.4368,-2488.6967)"
       x1="362.32599"
       y1="5.8388"
       x2="379.63699"
       y2="5.8388" />
    <linearGradient
       inkscape:collect="always"
       xlink:href="#id1"
       id="linearGradient2243"
       gradientUnits="userSpaceOnUse"
       gradientTransform="matrix(19.522353,0,0,19.522353,-2227.9788,-2810.4687)"
       x1="135.63422"
       y1="154.97049"
       x2="142.07021"
       y2="154.97049" />
  </defs>
  <polygon
     points="124.173,144.87 115.032,159.883 124.203,174.979 142.171,174.979 151.332,159.898 151.332,159.898 142.207,144.87 124.173,144.87 "
     transform="matrix(19.522353,0,0,19.522353,-2227.9788,-2810.4687)"
     style="fill:#ffffff;fill-rule:nonzero"
     id="polygon2583" />
  <rect
     style="opacity:1;fill:#000000;fill-opacity:1;stroke:none;stroke-width:2.20234585;stroke-linecap:round;stroke-linejoin:round;stroke-miterlimit:4;stroke-dasharray:none;stroke-dashoffset:0;stroke-opacity:0.47637796"
     id="rect5993"
     width="44.853615"
     height="217.52908"
     x="194.49643"
     y="143.14575" />
  <path
     d="M 212.29578,46.198101 L 52.973852,309.53904 L 212.30553,574.8888 L 529.5106,574.8888 L 688.34251,309.53904 L 529.52228,46.198101 L 212.29578,46.198101 L 212.29578,46.198101 z M 513.11375,75.253202 C 520.86801,88.11259 646.20933,295.94367 654.44581,309.59761 C 646.25033,323.28472 520.78213,532.89816 513.04151,545.8337 C 497.89606,545.8337 243.87319,545.8337 228.75115,545.8337 C 221.00079,532.92549 95.136274,323.31595 86.901729,309.59761 C 95.181174,295.91243 220.91881,88.079424 228.67892,75.253202 C 243.74631,75.253202 498.023,75.253202 513.11375,75.253202 z "
     style="fill:#71bf44;fill-rule:nonzero"
     id="path2585" />
  <path
     d="M 381.10554,209.6197 C 381.10554,222.17061 370.92074,232.35739 358.36983,232.35739 C 345.81893,232.35739 335.63407,222.17061 335.63407,209.6197 C 335.63407,197.07072 345.81893,186.884 358.36983,186.884 C 370.92074,186.884 381.10554,197.07072 381.10554,209.6197 z "
     style="fill:#231f20;fill-rule:evenodd"
     id="path2591" />
  <g
     id="g5911"
     transform="matrix(7.4637512,0,0,7.4637512,3654.4502,2135.9905)">
    <g
       transform="translate(43.83788,-5.9911769)"
       id="flowRoot5812"
       style="font-style:normal;font-variant:normal;font-weight:normal;font-stretch:normal;font-size:40px;line-height:1.25;font-family:'MUTT ClearlyU Alternate Glyphs Wide';-inkscape-font-specification:'MUTT ClearlyU Alternate Glyphs Wide';letter-spacing:0px;word-spacing:0px;fill:#000000;fill-opacity:1;stroke:none"
       aria-label="o">
      <path
         inkscape:connector-curvature="0"
         id="path5850"
         d="m -465.53711,-251.78906 q -2.89062,0 -4.57031,2.26562 -1.67969,2.2461 -1.67969,6.17188 0,3.92578 1.66016,6.1914 1.67968,2.2461 4.58984,2.2461 2.87109,0 4.55078,-2.26563 1.67969,-2.26562 1.67969,-6.17187 0,-3.88672 -1.67969,-6.15235 -1.67969,-2.28515 -4.55078,-2.28515 z m 0,-3.04688 q 4.6875,0 7.36328,3.04688 2.67578,3.04687 2.67578,8.4375 0,5.37109 -2.67578,8.4375 -2.67578,3.04687 -7.36328,3.04687 -4.70703,0 -7.38281,-3.04687 -2.65625,-3.06641 -2.65625,-8.4375 0,-5.39063 2.65625,-8.4375 2.67578,-3.04688 7.38281,-3.04688 z" />
    </g>
    <g
       style="stroke:none"
       transform="matrix(1.1063192,0,0,1.1063192,-833.30223,0.28717909)"
       id="g5848">
      <g
         transform="translate(-1.7044944,-1.3542613)"
         id="g5880">
        <path
           sodipodi:nodetypes="cccccc"
           style="opacity:1;fill:#ffffff;fill-opacity:1;stroke:none;stroke-width:0.15866427;stroke-linecap:round;stroke-linejoin:round;stroke-miterlimit:4;stroke-dasharray:none;stroke-dashoffset:0;stroke-opacity:0.47637796"
           d="m 368.14212,-218.67608 c 3.09813,3.09809 8.12116,3.09805 11.21926,-8e-5 3.09812,-3.09809 3.09815,-8.12112 6e-5,-11.21925 -3.09812,-3.09818 -8.12123,-3.09818 -11.21935,0 -3.09817,3.09812 -3.09816,8.12122 1e-5,11.21934 z"
           id="path5844"
           inkscape:connector-curvature="0" />
        <path
           inkscape:connector-curvature="0"
           id="path5164"
           d="m 367.67983,-218.21379 a 8.5869898,8.5869898 0 0 0 12.14384,-8e-5 8.5869898,8.5869898 0 0 0 7e-5,-12.14383 8.5869898,8.5869898 0 0 0 -12.14394,0 8.5869898,8.5869898 0 0 0 10e-6,12.14393 z m 1.125,-1.125 0.18031,-2.70097 0.5717,0.5717 0.003,0.003 2.7379,-2.73789 1.3739,1.37392 -2.73788,2.7379 0.57169,0.5717 z m 5.91017,-1.46334 -0.18043,-2.70086 2.70088,0.18042 -0.5717,0.57169 2.73789,2.7379 -1.37392,1.37391 -2.73789,-2.73789 -0.003,0.003 z m -4.44694,-4.44691 0.57171,-0.57171 0.003,-0.003 -2.73778,-2.73778 1.37391,-1.37393 2.7378,2.7378 0.57169,-0.5717 0.18042,2.70087 z m 4.94071,0.88337 -1.37392,-1.37393 2.7379,-2.73788 -0.003,-0.003 -0.57169,-0.5717 2.70098,-0.18032 -0.18043,2.70087 -0.5717,-0.5717 z"
           style="opacity:1;fill:#000000;fill-opacity:1;stroke:none;stroke-width:0.17173979;stroke-linecap:round;stroke-linejoin:round;stroke-miterlimit:4;stroke-dasharray:none;stroke-dashoffset:0;stroke-opacity:0.47637796" />
      </g>
    </g>
  </g>
  <g
     id="g5903"
     transform="matrix(6.9235089,0,0,6.9235089,3153.6149,1719.6471)">
    <text
       xml:space="preserve"
       style="font-style:normal;font-variant:normal;font-weight:normal;font-stretch:normal;font-size:5.77741718px;line-height:1.25;font-family:'URW Gothic';-inkscape-font-specification:'URW Gothic';letter-spacing:0px;word-spacing:0px;fill:#000000;fill-opacity:1;stroke:none;stroke-width:0.14443544"
       x="-411.65942"
       y="-191.28912"
       id="text5923"><tspan
         sodipodi:role="line"
         id="tspan5921"
         x="-411.65942"
         y="-191.28912"
         style="stroke-width:0.14443544">routing</tspan></text>
    <g
       transform="matrix(0.04984713,0,0,0.04984713,-376.80251,-223.39298)"
       id="g5934">
      <circle
         r="18.575233"
         cy="84.387085"
         cx="70.425522"
         id="path5925"
         style="opacity:1;fill:none;fill-opacity:1;stroke:#000000;stroke-width:1.60000002;stroke-linecap:round;stroke-linejoin:round;stroke-miterlimit:4;stroke-dasharray:none;stroke-dashoffset:0;stroke-opacity:1" />
      <text
         id="text5929"
         y="92.263435"
         x="56.593464"
         style="font-style:normal;font-variant:normal;font-weight:normal;font-stretch:normal;font-size:21.31624031px;line-height:1.25;font-family:'URW Gothic';-inkscape-font-specification:'URW Gothic';letter-spacing:0px;word-spacing:0px;fill:#000000;fill-opacity:1;stroke:none;stroke-width:0.532906"
         xml:space="preserve"><tspan
           style="stroke-width:0.532906"
           y="92.263435"
           x="56.593464"
           id="tspan5927"
           sodipodi:role="line">RD</tspan></text>
    </g>
  </g>
  <g
     transform="matrix(6.7799663,0,0,6.7799663,3135.2341,1973.3465)"
     id="g5991">
    <g
       aria-label="o"
       style="font-style:normal;font-variant:normal;font-weight:normal;font-stretch:normal;font-size:40px;line-height:1.25;font-family:'MUTT ClearlyU Alternate Glyphs Wide';-inkscape-font-specification:'MUTT ClearlyU Alternate Glyphs Wide';letter-spacing:0px;word-spacing:0px;fill:#000000;fill-opacity:1;stroke:none"
       id="g5981"
       transform="translate(43.83788,-5.9911769)">
      <path
         d="m -465.53711,-251.78906 q -2.89062,0 -4.57031,2.26562 -1.67969,2.2461 -1.67969,6.17188 0,3.92578 1.66016,6.1914 1.67968,2.2461 4.58984,2.2461 2.87109,0 4.55078,-2.26563 1.67969,-2.26562 1.67969,-6.17187 0,-3.88672 -1.67969,-6.15235 -1.67969,-2.28515 -4.55078,-2.28515 z m 0,-3.04688 q 4.6875,0 7.36328,3.04688 2.67578,3.04687 2.67578,8.4375 0,5.37109 -2.67578,8.4375 -2.67578,3.04687 -7.36328,3.04687 -4.70703,0 -7.38281,-3.04687 -2.65625,-3.06641 -2.65625,-8.4375 0,-5.39063 2.65625,-8.4375 2.67578,-3.04688 7.38281,-3.04688 z"
         id="path5979"
         inkscape:connector-curvature="0" />
    </g>
    <g
       id="g5989"
       transform="matrix(1.1063192,0,0,1.1063192,-833.30223,0.28717909)"
       style="stroke:none">
      <g
         id="g5987"
         transform="translate(-1.7044944,-1.3542613)">
        <path
           inkscape:connector-curvature="0"
           id="path5983"
           d="m 368.14212,-218.67608 c 3.09813,3.09809 8.12116,3.09805 11.21926,-8e-5 3.09812,-3.09809 3.09815,-8.12112 6e-5,-11.21925 -3.09812,-3.09818 -8.12123,-3.09818 -11.21935,0 -3.09817,3.09812 -3.09816,8.12122 1e-5,11.21934 z"
           style="opacity:1;fill:#ffffff;fill-opacity:1;stroke:none;stroke-width:0.15866427;stroke-linecap:round;stroke-linejoin:round;stroke-miterlimit:4;stroke-dasharray:none;stroke-dashoffset:0;stroke-opacity:0.47637796"
           sodipodi:nodetypes="cccccc" />
        <path
           style="opacity:1;fill:#000000;fill-opacity:1;stroke:none;stroke-width:0.17173979;stroke-linecap:round;stroke-linejoin:round;stroke-miterlimit:4;stroke-dasharray:none;stroke-dashoffset:0;stroke-opacity:0.47637796"
           d="m 367.67983,-218.21379 a 8.5869898,8.5869898 0 0 0 12.14384,-8e-5 8.5869898,8.5869898 0 0 0 7e-5,-12.14383 8.5869898,8.5869898 0 0 0 -12.14394,0 8.5869898,8.5869898 0 0 0 10e-6,12.14393 z m 1.125,-1.125 0.18031,-2.70097 0.5717,0.5717 0.003,0.003 2.7379,-2.73789 1.3739,1.37392 -2.73788,2.7379 0.57169,0.5717 z m 5.91017,-1.46334 -0.18043,-2.70086 2.70088,0.18042 -0.5717,0.57169 2.73789,2.7379 -1.37392,1.37391 -2.73789,-2.73789 -0.003,0.003 z m -4.44694,-4.44691 0.57171,-0.57171 0.003,-0.003 -2.73778,-2.73778 1.37391,-1.37393 2.7378,2.7378 0.57169,-0.5717 0.18042,2.70087 z m 4.94071,0.88337 -1.37392,-1.37393 2.7379,-2.73788 -0.003,-0.003 -0.57169,-0.5717 2.70098,-0.18032 -0.18043,2.70087 -0.5717,-0.5717 z"
           id="path5985"
           inkscape:connector-curvature="0" />
      </g>
    </g>
  </g>
  <path
     d="M 336.20416,230.25486 L 336.20416,358.70411 L 381.32228,358.70411 L 381.32228,358.70411 C 383.44042,352.62681 409.49887,278.93188 439.27243,243.07711 C 466.06686,210.81646 507.64945,171.96306 559.249,205.96709 C 559.249,205.96709 510.46261,159.84946 446.8998,196.81893 C 406.23666,220.47221 385.48636,262.22268 381.48234,273.1591 L 381.48234,229.14009 C 376.0766,235.95733 367.74057,240.34592 358.37176,240.34592 C 349.53204,240.34592 341.61182,236.4278 336.20416,230.25486 L 336.20416,230.25486 z "
     style="fill:url(#linearGradient2243);fill-rule:evenodd;fill-opacity:1.0"
     id="path2593" />
  <text
     xml:space="preserve"
     style="font-style:normal;font-variant:normal;font-weight:normal;font-stretch:normal;font-size:40px;line-height:1.25;font-family:'URW Gothic';-inkscape-font-specification:'URW Gothic';letter-spacing:0px;word-spacing:0px;fill:#000000;fill-opacity:1;stroke:none"
     x="371.06567"
     y="442.10641"
     id="text5915"><tspan
       sodipodi:role="line"
       id="tspan5913"
       x="371.06567"
       y="442.10641"
       style="text-align:center;text-anchor:middle">aus kontrollierten</tspan><tspan
       sodipodi:role="line"
       x="371.06567"
       y="492.10641"
       id="tspan5919"
       style="text-align:center;text-anchor:middle">RFCs</tspan></text>
</svg>
